<?xml version="1.0" encoding="UTF-8"?>
<!DOCTYPE svg PUBLIC "-//W3C//DTD SVG 1.1//EN" "http://www.w3.org/Graphics/SVG/1.1/DTD/svg11.dtd">
<svg xmlns="http://www.w3.org/2000/svg" version="1.1" width="58px" height="58px" style="shape-rendering:geometricPrecision; text-rendering:geometricPrecision; image-rendering:optimizeQuality; fill-rule:evenodd; clip-rule:evenodd" xmlns:xlink="http://www.w3.org/1999/xlink">
<g><path style="opacity:1" fill="#ffd1a3" d="M 23.5,14.5 C 23.6641,17.1873 23.4974,19.854 23,22.5C 19.4903,17.4709 15.9903,12.4709 12.5,7.5C 15.5395,4.46215 19.2062,2.79548 23.5,2.5C 23.5,6.5 23.5,10.5 23.5,14.5 Z"/></g>
<g><path style="opacity:1" fill="#ffbe7d" d="M 57.5,13.5 C 57.5,16.5 57.5,19.5 57.5,22.5C 56.5,23.1667 55.5,23.8333 54.5,24.5C 49.9544,18.7435 44.9544,13.4102 39.5,8.5C 44.4506,6.22743 49.7839,5.22743 55.5,5.5C 55.8023,8.37251 56.469,11.0392 57.5,13.5 Z"/></g>
<g><path style="opacity:0.978" fill="#ffd2a4" d="M 39.5,8.5 C 44.9544,13.4102 49.9544,18.7435 54.5,24.5C 53.5,26.5 52.5,28.5 51.5,30.5C 50.5041,30.4142 49.6708,30.7476 49,31.5C 43.9462,38.3803 39.1129,45.3803 34.5,52.5C 34.0125,43.212 35.0125,33.8786 37.5,24.5C 37.315,23.4163 36.9817,22.4163 36.5,21.5C 37.2568,17.1189 38.2568,12.7856 39.5,8.5 Z"/></g>
<g><path style="opacity:0.974" fill="#ffbd7a" d="M 12.5,7.5 C 15.9903,12.4709 19.4903,17.4709 23,22.5C 23.4974,19.854 23.6641,17.1873 23.5,14.5C 27.701,17.1002 32.0344,19.4335 36.5,21.5C 36.9817,22.4163 37.315,23.4163 37.5,24.5C 35.0125,33.8786 34.0125,43.212 34.5,52.5C 34.1667,53.1667 33.8333,53.8333 33.5,54.5C 25.6488,50.8182 21.6488,44.6515 21.5,36C 15.7422,35.8566 10.7422,35.3566 6.5,34.5C 11.7916,31.512 16.7916,28.012 21.5,24C 17.1794,23.501 12.8461,23.3343 8.5,23.5C 5.39147,23.7359 2.39147,23.4025 -0.5,22.5C -0.5,19.8333 -0.5,17.1667 -0.5,14.5C 3.70103,11.8998 8.03436,9.56649 12.5,7.5 Z"/></g>
<g><path style="opacity:0.997" fill="#ffab65" d="M 8.5,23.5 C 12.8461,23.3343 17.1794,23.501 21.5,24C 16.7916,28.012 11.7916,31.512 6.5,34.5C 6.65873,30.7091 7.32539,27.0424 8.5,23.5 Z"/></g>
<g><path style="opacity:1" fill="#ffad68" d="M 51.5,30.5 C 51.5,30.8333 51.5,31.1667 51.5,31.5C 46.2289,39.1224 40.8956,46.7891 35.5,54.5C 34.8333,54.5 34.1667,54.5 33.5,54.5C 33.8333,53.8333 34.1667,53.1667 34.5,52.5C 39.1129,45.3803 43.9462,38.3803 49,31.5C 49.6708,30.7476 50.5041,30.4142 51.5,30.5 Z"/></g>
<g><path style="opacity:0.954" fill="#ffbd79" d="M 51.5,31.5 C 53.5,32.5 55.5,33.5 57.5,34.5C 57.5,36.5 57.5,38.5 57.5,40.5C 55.1352,44.5615 53.1352,48.8949 51.5,53.5C 46.2079,54.4948 40.8746,54.8282 35.5,54.5C 40.8956,46.7891 46.2289,39.1224 51.5,31.5 Z"/></g>
</svg>
